# This file uses centimeters as units for non-parametric coordinates.

mtllib Brick.mtl
g default
v -0.500000 -0.500000 1.053683
v 0.500000 -0.500000 1.053683
v -0.500000 0.500000 1.053683
v 0.500000 0.500000 1.053683
v -0.500000 0.500000 -1.053683
v 0.500000 0.500000 -1.053683
v -0.500000 -0.500000 -1.053683
v 0.500000 -0.500000 -1.053683
vt 0.034146 0.503950
vt 0.309098 0.503950
vt 0.309098 0.963019
vt 0.034146 0.963019
vt 0.312580 0.503950
vt 0.587532 0.503950
vt 0.587532 0.963019
vt 0.312580 0.963019
vt 0.312580 0.039003
vt 0.587532 0.039003
vt 0.587532 0.498072
vt 0.312580 0.498072
vt 0.026985 0.042252
vt 0.301937 0.042252
vt 0.301937 0.501321
vt 0.026985 0.501321
vt 0.606541 0.173371
vt 0.853105 0.173371
vt 0.853105 0.419935
vt 0.606541 0.419935
vt 0.607540 0.523430
vt 0.854103 0.523430
vt 0.854103 0.769994
vt 0.607540 0.769994
vn 0.000000 0.000000 1.000000
vn 0.000000 0.000000 1.000000
vn 0.000000 0.000000 1.000000
vn 0.000000 0.000000 1.000000
vn 0.000000 1.000000 0.000000
vn 0.000000 1.000000 0.000000
vn 0.000000 1.000000 0.000000
vn 0.000000 1.000000 0.000000
vn 0.000000 0.000000 -1.000000
vn 0.000000 0.000000 -1.000000
vn 0.000000 0.000000 -1.000000
vn 0.000000 0.000000 -1.000000
vn 0.000000 -1.000000 0.000000
vn 0.000000 -1.000000 0.000000
vn 0.000000 -1.000000 0.000000
vn 0.000000 -1.000000 0.000000
vn 1.000000 0.000000 0.000000
vn 1.000000 0.000000 0.000000
vn 1.000000 0.000000 0.000000
vn 1.000000 0.000000 0.000000
vn -1.000000 0.000000 0.000000
vn -1.000000 0.000000 0.000000
vn -1.000000 0.000000 0.000000
vn -1.000000 0.000000 0.000000
s off
g pCube1
usemtl lambert2SG
f 1/17/1 2/18/2 4/19/3 3/20/4
f 3/9/5 4/10/6 6/11/7 5/12/8
f 5/21/9 6/22/10 8/23/11 7/24/12
f 7/13/13 8/14/14 2/15/15 1/16/16
f 2/1/17 8/2/18 6/3/19 4/4/20
f 7/5/21 1/6/22 3/7/23 5/8/24
