# This file uses centimeters as units for non-parametric coordinates.

mtllib Floor.mtl
g default
v 29.000002 -0.500000 17.000000
v 79.000002 -0.500000 17.000000
v 29.000002 0.500000 17.000000
v 79.000002 0.500000 17.000000
v 29.000002 0.500000 -14.500000
v 79.000002 0.500000 -14.500000
v 29.000002 -0.500000 -14.500000
v 79.000002 -0.500000 -14.500000
v 44.586878 -0.500000 17.000000
v 44.586878 0.500000 17.000000
v 44.586878 0.500000 -14.500000
v 44.586878 -0.500000 -14.500000
v 44.586878 -0.500000 59.000000
v 79.000002 -0.500000 59.000000
v 79.000002 0.500000 59.000000
v 44.586878 0.500000 59.000000
v 44.586878 0.500000 -48.000000
v 44.586878 -0.500000 -48.000000
v 79.000002 0.500000 -48.000000
v 79.000002 -0.500000 -48.000000
v 44.586878 0.500000 -70.000000
v 44.586878 -0.500000 -70.000000
v 79.000002 0.500000 -70.000000
v 79.000002 -0.500000 -70.000000
v 39.000002 0.500000 -48.000000
v 39.000002 -0.500000 -48.000000
v 39.000002 0.500000 -70.000000
v 39.000002 -0.500000 -70.000000
v 73.212351 -0.500000 59.000000
v 73.212351 0.500000 59.000000
v 73.212351 0.500000 17.000000
v 73.212351 0.500000 -14.500000
v 73.212351 0.500000 -48.000000
v 73.212351 0.500000 -70.000000
v 73.212351 -0.500000 -70.000000
v 73.212351 -0.500000 -48.000000
v 73.212351 -0.500000 -14.500000
v 73.212351 -0.500000 17.000000
v 73.212351 -0.500000 71.000000
v 79.000002 -0.500000 71.000000
v 79.000002 0.500000 71.000000
v 73.212351 0.500000 71.000000
vt 0.718503 0.616788
vt 0.718503 0.393829
vt 0.725581 0.393829
vt 0.725581 0.616788
vt 0.718503 0.156715
vt 0.725581 0.156715
vt 0.725581 0.914066
vt 0.718503 0.914066
vt 0.718503 0.000998
vt 0.725581 0.000998
vt 0.725581 0.999002
vt 0.718503 0.999002
vt 0.768978 0.223956
vt 0.768978 0.000998
vt 0.776056 0.000998
vt 0.776056 0.223956
vt 0.738200 0.298276
vt 0.731122 0.298276
vt 0.731122 0.000998
vt 0.738200 0.000998
vt 0.756359 0.000998
vt 0.763437 0.000998
vt 0.763437 0.238112
vt 0.756359 0.238112
vt 0.794215 0.000998
vt 0.801293 0.000998
vt 0.801293 0.156715
vt 0.794215 0.156715
vt 0.839149 0.085935
vt 0.832071 0.085935
vt 0.832071 0.000998
vt 0.839149 0.000998
vt 0.000864 0.383212
vt 0.111188 0.383212
vt 0.111188 0.606171
vt 0.000864 0.606171
vt 0.313800 0.383212
vt 0.313800 0.606171
vt 0.111188 0.085935
vt 0.313800 0.085935
vt 0.354766 0.383212
vt 0.354766 0.606171
vt 0.313800 0.843285
vt 0.111188 0.843285
vt 0.354766 0.085935
vt 0.354766 0.843285
vt 0.313800 0.999002
vt 0.111188 0.999002
vt 0.313800 0.000998
vt 0.354766 0.000998
vt 0.354766 0.999002
vt 0.071644 0.999002
vt 0.071644 0.843285
vt 0.359773 0.393829
vt 0.470098 0.393829
vt 0.470098 0.616788
vt 0.359773 0.616788
vt 0.672710 0.393829
vt 0.672710 0.616788
vt 0.470098 0.156715
vt 0.672710 0.156715
vt 0.713676 0.393829
vt 0.713676 0.616788
vt 0.672710 0.914065
vt 0.470098 0.914065
vt 0.470098 0.000998
vt 0.672710 0.000998
vt 0.713676 0.156715
vt 0.713676 0.914065
vt 0.430554 0.156715
vt 0.430554 0.000998
vt 0.713676 0.000998
vt 0.713676 0.999002
vt 0.672710 0.999002
vt 0.806833 0.111323
vt 0.806833 0.000998
vt 0.813911 0.000998
vt 0.813911 0.111323
vt 0.819452 0.111323
vt 0.819452 0.000998
vt 0.826530 0.000998
vt 0.826530 0.111323
vt 0.781596 0.203610
vt 0.781596 0.000998
vt 0.788674 0.000998
vt 0.788674 0.203610
vt 0.750818 0.244575
vt 0.743740 0.244575
vt 0.743740 0.041963
vt 0.750818 0.041963
vt 0.750818 0.284120
vt 0.743740 0.284120
vt 0.743740 0.000998
vt 0.750818 0.000998
vt 0.857308 0.000998
vt 0.864386 0.000998
vt 0.864386 0.040542
vt 0.857308 0.040542
vt 0.844689 0.041963
vt 0.844689 0.000998
vt 0.851767 0.000998
vt 0.851767 0.041963
vn 0.000000 0.000000 1.000000
vn 0.000000 0.000000 1.000000
vn 0.000000 0.000000 1.000000
vn 0.000000 0.000000 1.000000
vn 0.000000 1.000000 0.000000
vn 0.000000 1.000000 0.000000
vn 0.000000 1.000000 0.000000
vn 0.000000 1.000000 0.000000
vn 0.000000 0.000000 -1.000000
vn 0.000000 0.000000 -1.000000
vn 0.000000 0.000000 -1.000000
vn 0.000000 0.000000 -1.000000
vn 0.000000 -1.000000 0.000000
vn 0.000000 -1.000000 0.000000
vn 0.000000 -1.000000 0.000000
vn 0.000000 -1.000000 0.000000
vn 1.000000 0.000000 0.000000
vn 1.000000 0.000000 0.000000
vn 1.000000 0.000000 0.000000
vn 1.000000 0.000000 0.000000
vn -1.000000 0.000000 0.000000
vn -1.000000 0.000000 0.000000
vn -1.000000 0.000000 0.000000
vn -1.000000 0.000000 0.000000
vn 0.000000 0.000000 1.000000
vn 0.000000 0.000000 1.000000
vn 0.000000 0.000000 1.000000
vn 0.000000 0.000000 1.000000
vn 0.000000 1.000000 0.000000
vn 0.000000 1.000000 0.000000
vn 0.000000 0.000000 -1.000000
vn 0.000000 0.000000 -1.000000
vn 0.000000 0.000000 -1.000000
vn 0.000000 0.000000 -1.000000
vn 0.000000 -1.000000 0.000000
vn 0.000000 -1.000000 0.000000
vn 0.000000 -1.000000 0.000000
vn 0.000000 -1.000000 0.000000
vn 0.000000 -1.000000 0.000000
vn 0.000000 -1.000000 0.000000
vn 1.000000 0.000000 0.000000
vn 1.000000 0.000000 0.000000
vn 1.000000 0.000000 0.000000
vn 1.000000 0.000000 0.000000
vn 0.000000 1.000000 0.000000
vn 0.000000 1.000000 0.000000
vn 0.000000 1.000000 0.000000
vn 0.000000 1.000000 0.000000
vn -1.000000 0.000000 0.000000
vn -1.000000 0.000000 0.000000
vn -1.000000 0.000000 0.000000
vn -1.000000 0.000000 0.000000
vn -1.000000 0.000000 0.000000
vn -1.000000 0.000000 0.000000
vn -1.000000 0.000000 0.000000
vn -1.000000 0.000000 0.000000
vn 0.000000 1.000000 0.000000
vn 0.000000 1.000000 0.000000
vn 0.000000 1.000000 0.000000
vn 0.000000 1.000000 0.000000
vn 1.000000 0.000000 0.000000
vn 1.000000 0.000000 0.000000
vn 1.000000 0.000000 0.000000
vn 1.000000 0.000000 0.000000
vn 0.000000 -1.000000 0.000000
vn 0.000000 -1.000000 0.000000
vn 0.000000 -1.000000 0.000000
vn 0.000000 -1.000000 0.000000
vn -1.000000 0.000000 0.000000
vn -1.000000 0.000000 0.000000
vn -1.000000 0.000000 0.000000
vn -1.000000 0.000000 0.000000
vn 0.000000 1.000000 0.000000
vn 0.000000 1.000000 0.000000
vn 0.000000 1.000000 0.000000
vn 0.000000 1.000000 0.000000
vn 1.000000 0.000000 0.000000
vn 1.000000 0.000000 0.000000
vn 1.000000 0.000000 0.000000
vn 1.000000 0.000000 0.000000
vn 0.000000 -1.000000 0.000000
vn 0.000000 -1.000000 0.000000
vn 0.000000 -1.000000 0.000000
vn 0.000000 -1.000000 0.000000
vn 0.000000 0.000000 1.000000
vn 0.000000 0.000000 1.000000
vn 0.000000 0.000000 1.000000
vn 0.000000 0.000000 1.000000
vn 0.000000 1.000000 0.000000
vn 0.000000 1.000000 0.000000
vn 0.000000 1.000000 0.000000
vn 0.000000 1.000000 0.000000
vn 0.000000 0.000000 -1.000000
vn 0.000000 0.000000 -1.000000
vn 0.000000 0.000000 -1.000000
vn 0.000000 0.000000 -1.000000
vn 0.000000 -1.000000 0.000000
vn 0.000000 -1.000000 0.000000
vn 0.000000 -1.000000 0.000000
vn 0.000000 -1.000000 0.000000
vn 0.000000 0.000000 1.000000
vn 0.000000 0.000000 1.000000
vn 0.000000 0.000000 1.000000
vn 0.000000 0.000000 1.000000
vn 0.000000 1.000000 0.000000
vn 0.000000 1.000000 0.000000
vn 0.000000 1.000000 0.000000
vn 0.000000 1.000000 0.000000
vn 0.000000 1.000000 0.000000
vn 0.000000 1.000000 0.000000
vn 0.000000 1.000000 0.000000
vn 0.000000 1.000000 0.000000
vn 0.000000 0.000000 -1.000000
vn 0.000000 0.000000 -1.000000
vn 0.000000 -1.000000 0.000000
vn 0.000000 -1.000000 0.000000
vn 0.000000 -1.000000 0.000000
vn 0.000000 -1.000000 0.000000
vn 0.000000 -1.000000 0.000000
vn 0.000000 -1.000000 0.000000
vn 0.000000 -1.000000 0.000000
vn 0.000000 -1.000000 0.000000
vn 0.000000 -1.000000 0.000000
vn 0.000000 -1.000000 0.000000
vn 0.000000 -1.000000 0.000000
vn 0.000000 -1.000000 0.000000
vn 1.000000 0.000000 0.000000
vn 1.000000 0.000000 0.000000
vn 1.000000 0.000000 0.000000
vn 1.000000 0.000000 0.000000
vn 0.000000 1.000000 0.000000
vn 0.000000 1.000000 0.000000
vn 0.000000 1.000000 0.000000
vn 0.000000 1.000000 0.000000
vn -1.000000 0.000000 0.000000
vn -1.000000 0.000000 0.000000
vn -1.000000 0.000000 0.000000
vn -1.000000 0.000000 0.000000
s off
g pCube300
usemtl lambert32SG
f 1/75/1 9/76/2 10/77/3 3/78/4
s 1
f 3/33/5 10/34/6 11/35/7 5/36/8
s off
f 5/79/9 11/80/10 12/81/11 7/82/12
s 2
f 7/54/13 12/55/14 9/56/15 1/57/16
s off
f 2/1/17 8/2/18 6/3/19 4/4/20
f 7/13/21 1/14/22 3/15/23 5/16/24
f 13/83/25 29/84/26 30/85/27 16/86/28
s 1
f 11/35/7 10/34/6 31/37/29 32/38/30
s 3
f 22/87/31 21/88/32 34/89/33 35/90/34
s 2
f 9/56/15 12/55/14 37/58/35 38/59/36
s 4
f 9/56/37 38/59/38 29/64/39 13/65/40
s off
f 2/1/41 4/4/42 15/7/43 14/8/44
s 5
f 31/37/45 10/34/46 16/39/47 30/40/48
s off
f 10/17/49 9/18/50 13/19/51 16/20/52
f 12/21/53 11/22/54 17/23/55 18/24/56
s 6
f 11/35/57 32/38/58 33/43/59 17/44/60
s off
f 6/3/61 8/2/62 20/5/63 19/6/64
s 7
f 37/58/65 12/55/66 18/60/67 36/61/68
s off
f 26/25/69 25/26/70 27/27/71 28/28/72
s 8
f 17/44/73 33/43/74 34/47/75 21/48/76
s off
f 19/6/77 20/5/78 24/9/79 23/10/80
s 9
f 36/61/81 18/60/82 22/66/83 35/67/84
s off
f 18/95/85 17/96/86 25/97/87 26/98/88
f 17/44/89 21/48/90 27/52/91 25/53/92
f 21/88/93 22/87/94 28/91/95 27/92/96
f 22/66/97 18/60/98 26/70/99 28/71/100
f 39/99/101 40/100/102 41/101/103 42/102/104
s 5
f 4/41/105 31/37/45 30/40/48 15/45/106
s 1
f 32/38/30 31/37/29 4/41/107 6/42/108
s 6
f 33/43/59 32/38/58 6/42/109 19/46/110
s 8
f 34/47/75 33/43/74 19/46/111 23/51/112
s 3
f 35/90/34 34/89/33 23/93/113 24/94/114
s 9
f 20/68/115 36/61/81 35/67/84 24/72/116
s 7
f 8/62/117 37/58/65 36/61/68 20/68/118
s 2
f 38/59/36 37/58/35 8/62/119 2/63/120
s 4
f 29/64/39 38/59/38 2/63/121 14/69/122
s off
f 29/64/123 14/69/124 40/73/125 39/74/126
f 14/8/127 15/7/128 41/11/129 40/12/130
f 15/45/131 30/40/132 42/49/133 41/50/134
f 30/29/135 29/30/136 39/31/137 42/32/138
