# This file uses centimeters as units for non-parametric coordinates.

mtllib GodRays.mtl
g default
v -8.182776 0.000000 2.020922
v -6.534334 0.000000 1.869696
v -4.900751 0.000000 1.718468
v -3.267167 0.000000 1.567239
v -1.633583 0.000000 1.416010
v 0.000000 0.000000 1.264780
v 1.633584 0.000000 1.113550
v 3.267167 0.000000 0.962321
v 4.900751 0.000000 0.811092
v 6.534335 0.000000 0.659864
v 8.182776 0.000000 0.508637
v -8.182776 0.000000 0.676524
v -6.562275 0.000000 0.676524
v -4.921706 0.000000 0.657490
v -3.281137 0.000000 0.603231
v -1.640569 0.000000 0.521850
v 0.000000 0.000000 0.425501
v 1.640569 0.000000 0.328566
v 3.281137 0.000000 0.245524
v 4.921706 0.000000 0.188772
v 6.562275 0.000000 0.166667
v 8.182777 0.000000 0.166667
v -8.182776 0.000000 -0.676524
v -6.562275 0.000000 -0.676524
v -4.921706 0.000000 -0.657485
v -3.281137 0.000000 -0.603232
v -1.640569 0.000000 -0.521850
v 0.000000 0.000000 -0.425500
v 1.640569 0.000000 -0.328566
v 3.281137 0.000000 -0.245524
v 4.921706 0.000000 -0.188772
v 6.562275 0.000000 -0.166667
v 8.182777 0.000000 -0.166667
v -8.182776 0.000000 -2.075224
v -6.530167 0.000000 -1.913137
v -4.897625 0.000000 -1.751048
v -3.265083 0.000000 -1.588960
v -1.632542 0.000000 -1.426870
v -0.000000 0.000000 -1.264780
v 1.632542 0.000000 -1.102690
v 3.265083 0.000000 -0.940600
v 4.897625 0.000000 -0.778511
v 6.530168 0.000000 -0.616423
v 8.182776 0.000000 -0.454336
vt 0.079594 0.396254
vt 0.166500 0.403914
vt 0.165027 0.464355
vt 0.079594 0.464355
vt 0.252623 0.411575
vt 0.251518 0.465319
vt 0.165027 0.532894
vt 0.079594 0.532894
vt 0.338745 0.419235
vt 0.338009 0.468068
vt 0.251518 0.531930
vt 0.166720 0.595536
vt 0.079594 0.603746
vt 0.424868 0.426896
vt 0.424500 0.472190
vt 0.338009 0.529182
vt 0.252788 0.587325
vt 0.510991 0.434556
vt 0.510991 0.477071
vt 0.424500 0.525059
vt 0.338856 0.579114
vt 0.597114 0.442217
vt 0.597482 0.481981
vt 0.510991 0.520179
vt 0.424923 0.570904
vt 0.683237 0.449878
vt 0.683973 0.486187
vt 0.597482 0.515268
vt 0.510991 0.562693
vt 0.769359 0.457538
vt 0.770464 0.489062
vt 0.683973 0.511062
vt 0.597059 0.554482
vt 0.855482 0.465199
vt 0.856955 0.490182
vt 0.770464 0.508187
vt 0.683127 0.546271
vt 0.942388 0.472859
vt 0.942388 0.490182
vt 0.856955 0.507067
vt 0.769195 0.538061
vt 0.942388 0.507067
vt 0.855262 0.529850
vt 0.942388 0.521639
vn 0.000000 1.000000 0.000000
vn 0.000000 1.000000 0.000000
vn 0.000000 1.000000 0.000000
vn 0.000000 1.000000 0.000000
vn 0.000000 1.000000 0.000000
vn 0.000000 1.000000 0.000000
vn 0.000000 1.000000 0.000000
vn 0.000000 1.000000 0.000000
vn 0.000000 1.000000 0.000000
vn 0.000000 1.000000 0.000000
vn 0.000000 1.000000 0.000000
vn 0.000000 1.000000 0.000000
vn 0.000000 1.000000 0.000000
vn 0.000000 1.000000 0.000000
vn 0.000000 1.000000 0.000000
vn 0.000000 1.000000 0.000000
vn 0.000000 1.000000 0.000000
vn 0.000000 1.000000 0.000000
vn 0.000000 1.000000 0.000000
vn 0.000000 1.000000 0.000000
vn 0.000000 1.000000 0.000000
vn 0.000000 1.000000 0.000000
vn 0.000000 1.000000 0.000000
vn 0.000000 1.000000 0.000000
vn 0.000000 1.000000 0.000000
vn 0.000000 1.000000 0.000000
vn 0.000000 1.000000 0.000000
vn 0.000000 1.000000 0.000000
vn 0.000000 1.000000 0.000000
vn 0.000000 1.000000 0.000000
vn 0.000000 1.000000 0.000000
vn 0.000000 1.000000 0.000000
vn 0.000000 1.000000 0.000000
vn 0.000000 1.000000 0.000000
vn 0.000000 1.000000 0.000000
vn 0.000000 1.000000 0.000000
vn 0.000000 1.000000 0.000000
vn 0.000000 1.000000 0.000000
vn 0.000000 1.000000 0.000000
vn 0.000000 1.000000 0.000000
vn 0.000000 1.000000 0.000000
vn 0.000000 1.000000 0.000000
vn 0.000000 1.000000 0.000000
vn 0.000000 1.000000 0.000000
s 1
g pPlane1
usemtl lambert2SG
f 1/1/1 2/2/2 13/3/3 12/4/4
f 2/2/2 3/5/5 14/6/6 13/3/3
f 3/5/5 4/9/7 15/10/8 14/6/6
f 4/9/7 5/14/9 16/15/10 15/10/8
f 5/14/9 6/18/11 17/19/12 16/15/10
f 6/18/11 7/22/13 18/23/14 17/19/12
f 7/22/13 8/26/15 19/27/16 18/23/14
f 8/26/15 9/30/17 20/31/18 19/27/16
f 9/30/17 10/34/19 21/35/20 20/31/18
f 10/34/19 11/38/21 22/39/22 21/35/20
f 12/4/4 13/3/3 24/7/23 23/8/24
f 13/3/3 14/6/6 25/11/25 24/7/23
f 14/6/6 15/10/8 26/16/26 25/11/25
f 15/10/8 16/15/10 27/20/27 26/16/26
f 16/15/10 17/19/12 28/24/28 27/20/27
f 17/19/12 18/23/14 29/28/29 28/24/28
f 18/23/14 19/27/16 30/32/30 29/28/29
f 19/27/16 20/31/18 31/36/31 30/32/30
f 20/31/18 21/35/20 32/40/32 31/36/31
f 21/35/20 22/39/22 33/42/33 32/40/32
f 23/8/24 24/7/23 35/12/34 34/13/35
f 24/7/23 25/11/25 36/17/36 35/12/34
f 25/11/25 26/16/26 37/21/37 36/17/36
f 26/16/26 27/20/27 38/25/38 37/21/37
f 27/20/27 28/24/28 39/29/39 38/25/38
f 28/24/28 29/28/29 40/33/40 39/29/39
f 29/28/29 30/32/30 41/37/41 40/33/40
f 30/32/30 31/36/31 42/41/42 41/37/41
f 31/36/31 32/40/32 43/43/43 42/41/42
f 32/40/32 33/42/33 44/44/44 43/43/43
